<svg xmlns="http://www.w3.org/2000/svg" width="24" height="22" viewBox="0 0 24 22"><path d="M7.733,14.8H20.484a.709.709,0,0,0,.676-.537L23.973,3.9a.772.772,0,0,0-.115-.649.692.692,0,0,0-.561-.295H6.111L5.608.58A.712.712,0,0,0,4.922,0H.7A.722.722,0,0,0,0,.74a.722.722,0,0,0,.7.74H4.358L6.9,13.506a2.23,2.23,0,0,0-1.271,2.037,2.17,2.17,0,0,0,2.109,2.221h12.75a.741.741,0,0,0,0-1.48H7.734a.741.741,0,0,1,0-1.48ZM22.365,4.441l-2.411,8.882H8.3L6.423,4.441Zm0,0"/><path d="M150,362.118A2.118,2.118,0,1,0,152.118,360,2.12,2.12,0,0,0,150,362.118Zm2.118-.706a.706.706,0,1,1-.706.706A.707.707,0,0,1,152.118,361.412Zm0,0" transform="translate(-142.975 -342.236)"/><path d="M362,362.118A2.118,2.118,0,1,0,364.118,360,2.12,2.12,0,0,0,362,362.118Zm2.118-.706a.706.706,0,1,1-.706.706A.707.707,0,0,1,364.118,361.412Zm0,0" transform="translate(-345.059 -342.236)"/></svg>