<svg xmlns="http://www.w3.org/2000/svg" width="38" height="26" viewBox="0 0 38 26"><g transform="translate(0 -83.478)"><g transform="translate(0 83.478)"><path d="M34.283,83.478H3.717A3.752,3.752,0,0,0,0,87.252V105.7a3.752,3.752,0,0,0,3.717,3.774H34.283A3.752,3.752,0,0,0,38,105.7V87.252A3.752,3.752,0,0,0,34.283,83.478Zm-.1,2.516L19.876,100.519a1.225,1.225,0,0,1-1.752,0L3.818,85.994ZM2.478,105.6V88.193l8.574,8.7Zm2.165,1.36L12.8,98.676l3.567,3.622a3.682,3.682,0,0,0,5.257,0L25.2,98.676l8.161,8.285Zm30.878-1.36-8.574-8.7,8.574-8.7V105.6Z" transform="translate(0 -83.478)"/></g></g></svg>