<svg xmlns="http://www.w3.org/2000/svg" width="38" height="38" viewBox="0 0 38 38"><path d="M19,0A19,19,0,1,0,38,19,19.041,19.041,0,0,0,19,0Zm0,35.773A16.773,16.773,0,1,1,35.773,19,16.792,16.792,0,0,1,19,35.773Z"/><g transform="translate(4.37 4.37)"><path d="M74.63,60A14.63,14.63,0,1,0,89.26,74.63,14.688,14.688,0,0,0,74.63,60Zm0,27.02A12.391,12.391,0,1,1,87.02,74.63,12.4,12.4,0,0,1,74.63,87.02Z" transform="translate(-60 -60)"/></g><g transform="translate(14.63 9.167)"><path d="M200.37,129.74a2.185,2.185,0,1,1,2.185-2.185,1.093,1.093,0,1,0,2.185,0,4.378,4.378,0,0,0-3.278-4.232v-1.231a1.093,1.093,0,0,0-2.185,0v1.231a4.37,4.37,0,0,0,1.093,8.6,2.185,2.185,0,1,1-2.185,2.185,1.093,1.093,0,0,0-2.185,0,4.378,4.378,0,0,0,3.278,4.232v1.231a1.093,1.093,0,0,0,2.185,0v-1.231a4.37,4.37,0,0,0-1.093-8.6Z" transform="translate(-196 -121)"/></g></svg>