<svg xmlns="http://www.w3.org/2000/svg" width="28" height="36" viewBox="0 0 28 36"><g transform="translate(-68.5)"><path d="M129.581,424.161h2.161a1.081,1.081,0,1,0,0-2.161h-2.161a1.081,1.081,0,0,0,0,2.161Z" transform="translate(-55.49 -392.483)"/><path d="M311.742,422h-2.161a1.081,1.081,0,0,0,0,2.161h2.161a1.081,1.081,0,1,0,0-2.161Z" transform="translate(-221.96 -392.483)"/><path d="M221.742,422h-2.161a1.081,1.081,0,0,0,0,2.161h2.161a1.081,1.081,0,1,0,0-2.161Z" transform="translate(-138.725 -392.483)"/><path d="M129.581,364.161h2.161a1.081,1.081,0,0,0,0-2.161h-2.161a1.081,1.081,0,0,0,0,2.161Z" transform="translate(-55.49 -336.586)"/><path d="M311.742,362h-2.161a1.081,1.081,0,0,0,0,2.161h2.161a1.081,1.081,0,1,0,0-2.161Z" transform="translate(-221.96 -336.586)"/><path d="M221.742,362h-2.161a1.081,1.081,0,0,0,0,2.161h2.161a1.081,1.081,0,0,0,0-2.161Z" transform="translate(-138.725 -336.586)"/><path d="M129.581,304.161h2.161a1.081,1.081,0,1,0,0-2.161h-2.161a1.081,1.081,0,1,0,0,2.161Z" transform="translate(-55.49 -280.798)"/><path d="M311.742,302h-2.161a1.081,1.081,0,0,0,0,2.161h2.161a1.081,1.081,0,1,0,0-2.161Z" transform="translate(-221.96 -280.798)"/><path d="M221.742,302h-2.161a1.081,1.081,0,0,0,0,2.161h2.161a1.081,1.081,0,1,0,0-2.161Z" transform="translate(-138.725 -280.798)"/><path d="M129.581,188.483h15.127a1.081,1.081,0,0,0,1.081-1.081v-4.322A1.081,1.081,0,0,0,144.708,182H129.581a1.081,1.081,0,0,0-1.081,1.081V187.4A1.081,1.081,0,0,0,129.581,188.483Zm1.081-4.322h12.966v2.161H130.661Z" transform="translate(-55.239 -169.27)"/><path d="M93.14,0H75.22a3.27,3.27,0,0,0-3.36,3.164V8.578h-.747A2.543,2.543,0,0,0,68.5,11.039v22.5A2.543,2.543,0,0,0,71.113,36H92.767a2.543,2.543,0,0,0,2.613-2.461v-22.5a2.543,2.543,0,0,0-2.613-2.461H92.02V6.328h3.36A1.089,1.089,0,0,0,96.5,5.273V3.164A3.27,3.27,0,0,0,93.14,0ZM74.1,3.164a1.09,1.09,0,0,1,1.12-1.055H89.972a2.986,2.986,0,0,0-.192,1.055V8.578H74.1Zm18.667,7.523a.363.363,0,0,1,.373.352v22.5a.363.363,0,0,1-.373.352H71.113a.363.363,0,0,1-.373-.352v-22.5a.363.363,0,0,1,.373-.352ZM94.26,4.219H92.02V3.164a1.122,1.122,0,0,1,2.24,0Z" transform="translate(0 0)"/><path d="M183.225,61h-8.644a1.081,1.081,0,0,0,0,2.161h8.644a1.081,1.081,0,0,0,0-2.161Z" transform="translate(-96.976 -56.606)"/></g></svg>