<svg xmlns="http://www.w3.org/2000/svg" width="39.814" height="21.378" viewBox="0 0 39.814 21.378"><g transform="translate(0)"><path d="M39.44,14.991a1.686,1.686,0,0,0,0-2.119l-1.669-2.149a.055.055,0,0,1,0-.068l1.668-2.149a1.685,1.685,0,0,0,0-2.119L37.771,4.237a.054.054,0,0,1,0-.068L39.1,2.455a1.349,1.349,0,0,0,.06-1.627A2.074,2.074,0,0,0,37.439,0H2.376A2.074,2.074,0,0,0,.653.828a1.349,1.349,0,0,0,.06,1.627L2.044,4.169a.054.054,0,0,1,0,.068L.375,6.387a1.685,1.685,0,0,0,0,2.119l1.668,2.149a.055.055,0,0,1,0,.068L.375,12.873a1.685,1.685,0,0,0,0,2.119l1.668,2.149a.054.054,0,0,1,0,.068L.713,18.923a1.349,1.349,0,0,0-.06,1.627,2.074,2.074,0,0,0,1.723.828H37.439a2.074,2.074,0,0,0,1.722-.828,1.349,1.349,0,0,0-.06-1.627l-1.331-1.715a.055.055,0,0,1,0-.068Zm-2-1.025-1.668,2.15a1.685,1.685,0,0,0,0,2.119l.95,1.224H28.271v-.064a1.205,1.205,0,0,0-2.36,0v.064H3.089l.95-1.223a1.685,1.685,0,0,0,0-2.119L2.371,13.966a.054.054,0,0,1,0-.068l1.668-2.149a1.685,1.685,0,0,0,0-2.119L2.371,7.481a.055.055,0,0,1,0-.068L4.039,5.263a1.686,1.686,0,0,0,0-2.119L3.089,1.92H25.912v.064a1.205,1.205,0,0,0,2.36,0V1.92h8.454l-.95,1.223a1.685,1.685,0,0,0,0,2.119l1.668,2.149a.054.054,0,0,1,0,.068L35.776,9.629a1.685,1.685,0,0,0,0,2.119L37.444,13.9A.054.054,0,0,1,37.444,13.965Zm0,0"/><path d="M334.726,78.32a1.512,1.512,0,0,0-1.512,1.512v.884a1.511,1.511,0,0,0,3.023,0v-.884A1.512,1.512,0,0,0,334.726,78.32Zm0,0" transform="translate(-307.762 -73.739)"/><path d="M334.726,220.348a1.511,1.511,0,0,0-1.512,1.511v.884a1.511,1.511,0,0,0,3.023,0v-.884A1.511,1.511,0,0,0,334.726,220.348Zm0,0" transform="translate(-307.762 -207.458)"/></g></svg>