<svg xmlns="http://www.w3.org/2000/svg" width="30" height="30" viewBox="0 0 30 30"><defs><style>.a{fill:#7f53ad;}</style></defs><path class="a" d="M25.607,4.393A15,15,0,0,0,4.393,25.607,15,15,0,0,0,25.607,4.393Zm-.631,19.358-.845-.845a1.441,1.441,0,0,1-.271-1.663l.757-1.517a10.589,10.589,0,0,0,0-9.45l-.757-1.517a1.441,1.441,0,0,1,.271-1.663l.845-.845a13.272,13.272,0,0,1,0,17.5ZM7.69,20.47l-.757-1.517a8.9,8.9,0,0,1,0-7.905L7.69,9.53a3.168,3.168,0,0,0,.332-1.508l.091,0A3.17,3.17,0,0,0,9.53,7.69l1.517-.757a8.9,8.9,0,0,1,7.905,0l1.517.757a3.168,3.168,0,0,0,1.507.332A3.168,3.168,0,0,0,22.31,9.53l.757,1.517a8.9,8.9,0,0,1,0,7.905L22.31,20.47a3.169,3.169,0,0,0-.332,1.507,3.168,3.168,0,0,0-1.507.332l-1.517.757a8.9,8.9,0,0,1-7.905,0L9.53,22.31a3.169,3.169,0,0,0-1.507-.332A3.169,3.169,0,0,0,7.69,20.47ZM15,1.731a13.172,13.172,0,0,1,8.751,3.294l-.845.845a1.441,1.441,0,0,1-1.663.271l-1.517-.757a10.589,10.589,0,0,0-9.45,0l-1.517.757A1.441,1.441,0,0,1,7.094,5.87l-.845-.845A13.172,13.172,0,0,1,15,1.731ZM5.025,6.249l.845.845a1.441,1.441,0,0,1,.271,1.663l-.757,1.517a10.589,10.589,0,0,0,0,9.45l.757,1.517a1.441,1.441,0,0,1-.271,1.663l-.845.845a13.272,13.272,0,0,1,0-17.5ZM15,28.269a13.172,13.172,0,0,1-8.751-3.294l.845-.845a1.441,1.441,0,0,1,1.663-.271l1.517.757a10.589,10.589,0,0,0,9.45,0l1.517-.757a1.441,1.441,0,0,1,1.663.271l.845.845A13.172,13.172,0,0,1,15,28.269Z"/></svg>