<svg xmlns="http://www.w3.org/2000/svg" width="30" height="30" viewBox="0 0 30 30"><defs><style>.a{fill:#7f53ad;}</style></defs><path class="a" d="M27.822,11.169l-1.463-.248c-.13-.363-.277-.718-.44-1.064l.862-1.205A2.61,2.61,0,0,0,26.5,5.272L24.739,3.514a2.614,2.614,0,0,0-3.373-.283l-1.21.862a12.057,12.057,0,0,0-1.136-.468l-.242-1.433A2.617,2.617,0,0,0,16.189,0H13.7a2.617,2.617,0,0,0-2.589,2.188l-.254,1.49q-.539.2-1.06.447L8.614,3.269a2.622,2.622,0,0,0-3.385.282L3.467,5.308a2.618,2.618,0,0,0-.283,3.379l.875,1.23c-.161.347-.306.7-.435,1.069l-1.434.242A2.618,2.618,0,0,0,0,13.817V16.3A2.617,2.617,0,0,0,2.188,18.89l1.49.254c.131.359.28.714.447,1.06L3.272,21.39a2.609,2.609,0,0,0,.283,3.379l1.758,1.758a2.614,2.614,0,0,0,3.373.283l1.23-.875c.323.15.658.288,1,.412l.244,1.463A2.618,2.618,0,0,0,13.752,30h2.49a2.617,2.617,0,0,0,2.589-2.189l.248-1.463c.363-.13.718-.277,1.064-.44l1.2.859a2.621,2.621,0,0,0,3.383-.28l1.758-1.758a2.618,2.618,0,0,0,.283-3.379l-.862-1.211c.167-.354.315-.709.442-1.063l1.461-.244A2.618,2.618,0,0,0,30,16.242V13.763A2.592,2.592,0,0,0,27.822,11.169Zm.42,5.073a.865.865,0,0,1-.723.856l-1.938.323a.947.947,0,0,0-.753.658,10.277,10.277,0,0,1-.7,1.694.947.947,0,0,0,.069.992l1.142,1.6a.865.865,0,0,1-.094,1.117l-1.758,1.758a.864.864,0,0,1-1.115.1l-1.6-1.141a.947.947,0,0,0-1-.07,10.35,10.35,0,0,1-1.7.7.947.947,0,0,0-.654.749l-.329,1.94a.865.865,0,0,1-.856.724h-2.49a.865.865,0,0,1-.856-.723l-.323-1.938a.948.948,0,0,0-.652-.752,10.288,10.288,0,0,1-1.642-.675.948.948,0,0,0-.99.069L7.663,25.381a.831.831,0,0,1-.5.159.848.848,0,0,1-.612-.256L4.8,23.523a.858.858,0,0,1-.094-1.11l1.135-1.579a.946.946,0,0,0,.068-1,10.051,10.051,0,0,1-.711-1.687.949.949,0,0,0-.747-.65l-1.964-.335a.865.865,0,0,1-.724-.856V13.817a.865.865,0,0,1,.724-.856L4.4,12.638a.947.947,0,0,0,.752-.661,10.133,10.133,0,0,1,.691-1.7.948.948,0,0,0-.069-.99L4.616,7.667a.865.865,0,0,1,.093-1.116L6.473,4.793l.006-.007a.842.842,0,0,1,.606-.25.851.851,0,0,1,.5.159L9.172,5.837a.945.945,0,0,0,1,.067,10.048,10.048,0,0,1,1.687-.711.949.949,0,0,0,.651-.748l.335-1.964a.865.865,0,0,1,.856-.724h2.484a.865.865,0,0,1,.856.724L17.368,4.4a.947.947,0,0,0,.662.752,10.23,10.23,0,0,1,1.76.724.948.948,0,0,0,.993-.068L22.39,4.66a.83.83,0,0,1,.5-.159.849.849,0,0,1,.612.256l1.761,1.761A.859.859,0,0,1,25.35,7.63l-1.142,1.6a.948.948,0,0,0-.068.995,10.345,10.345,0,0,1,.7,1.7.947.947,0,0,0,.749.653l1.938.329h0a.843.843,0,0,1,.712.844Zm0,0"/><path class="a" d="M162.293,156.453a5.84,5.84,0,1,0,5.84,5.84A5.847,5.847,0,0,0,162.293,156.453Zm0,9.92a4.08,4.08,0,1,1,4.08-4.08A4.085,4.085,0,0,1,162.293,166.373Zm0,0" transform="translate(-147.293 -147.293)"/></svg>