<svg xmlns="http://www.w3.org/2000/svg" width="30" height="30" viewBox="0 0 30 30"><defs><style>.a{fill:#7f53ad;}</style></defs><path class="a" d="M30,2.637V.879A.879.879,0,0,0,29.121,0H.879A.879.879,0,0,0,0,.879V2.637A2.641,2.641,0,0,0,1.758,5.122V18.516a2.64,2.64,0,0,0,2.637,2.637h9.727v3.725a2.637,2.637,0,1,0,1.758,0V21.152h1.878a6.153,6.153,0,1,0,10.485-5.18V5.122A2.641,2.641,0,0,0,30,2.637ZM15,28.242a.879.879,0,1,1,.879-.879A.88.88,0,0,1,15,28.242ZM4.395,19.395a.88.88,0,0,1-.879-.879V5.273H26.484v9.442a6.151,6.151,0,0,0-8.726,4.679Zm19.453,5.332a4.424,4.424,0,1,1,4.395-4.453A4.429,4.429,0,0,1,23.848,24.727ZM27.363,3.516H2.637a.88.88,0,0,1-.879-.879V1.758H28.242v.879A.88.88,0,0,1,27.363,3.516Z"/><g transform="translate(22.969 17.637)"><path class="a" d="M394.637,302.758h-.879v-.879a.879.879,0,0,0-1.758,0v1.758a.879.879,0,0,0,.879.879h1.758a.879.879,0,1,0,0-1.758Z" transform="translate(-392 -301)"/></g><g transform="translate(7.031 7.031)"><path class="a" d="M135.058,120H133.3a.878.878,0,0,0-.308,1.7l-5.019,5.019-2.894-2.942a.879.879,0,0,0-.623-.263h0a.879.879,0,0,0-.621.257l-3.574,3.574a.879.879,0,1,0,1.243,1.243l2.948-2.948,2.894,2.942a.879.879,0,0,0,.623.263h0a.878.878,0,0,0,.621-.257l5.646-5.646a.878.878,0,0,0,1.7-.308v-1.758A.881.881,0,0,0,135.058,120Z" transform="translate(-120 -119.999)"/></g></svg>